<mxfile host="app.diagrams.net" modified="2022-01-20T19:44:58.054Z" agent="5.0 (Windows NT 10.0; Win64; x64) AppleWebKit/537.36 (KHTML, like Gecko) Chrome/97.0.4692.99 Safari/537.36" etag="CwosO5coUHWbkvE61TzY" version="16.4.0" type="github">
  <diagram id="iYoqzr5WYE2hCEMeHDBI" name="Page-1">
    <mxGraphModel dx="1422" dy="832" grid="1" gridSize="10" guides="1" tooltips="1" connect="1" arrows="1" fold="1" page="1" pageScale="1" pageWidth="850" pageHeight="1100" math="0" shadow="0">
      <root>
        <mxCell id="0" />
        <mxCell id="1" parent="0" />
        <mxCell id="d-l_255NbzkC1FXPSZey-14" value="Student" style="swimlane;fontStyle=1;childLayout=stackLayout;horizontal=1;startSize=26;fillColor=#B3B3B3;horizontalStack=0;resizeParent=1;resizeParentMax=0;resizeLast=0;collapsible=1;marginBottom=0;labelBackgroundColor=none;fontSize=14;fontColor=default;" vertex="1" parent="1">
          <mxGeometry x="180" y="480" width="130" height="140" as="geometry" />
        </mxCell>
        <mxCell id="d-l_255NbzkC1FXPSZey-15" value="id&#xa;name&#xa;school email&#xa;home email&#xa;phone number&#xa;password hash" style="text;strokeColor=none;fillColor=none;align=left;verticalAlign=top;spacingLeft=4;spacingRight=4;overflow=hidden;rotatable=0;points=[[0,0.5],[1,0.5]];portConstraint=eastwest;labelBackgroundColor=none;fontSize=14;fontColor=default;spacing=3;" vertex="1" parent="d-l_255NbzkC1FXPSZey-14">
          <mxGeometry y="26" width="130" height="114" as="geometry" />
        </mxCell>
      </root>
    </mxGraphModel>
  </diagram>
</mxfile>
